<?xml version="1.0" encoding="utf-8"?>
<!-- Generator: Adobe Illustrator 21.0.2, SVG Export Plug-In . SVG Version: 6.00 Build 0)  -->
<!DOCTYPE svg PUBLIC "-//W3C//DTD SVG 1.1//EN" "http://www.w3.org/Graphics/SVG/1.1/DTD/svg11.dtd">
<svg version="1.1" xmlns="http://www.w3.org/2000/svg" xmlns:xlink="http://www.w3.org/1999/xlink" x="0px" y="0px"
	 viewBox="0 0 333 243.4" style="enable-background:new 0 0 333 243.4;" xml:space="preserve">
<style type="text/css">
	.st0{display:none;}
	.st1{display:inline;}
	.st2{fill:#FF3417;}
	.st3{fill:#0082AB;}
</style>
<g id="guides" class="st0">
</g>
<g id="space" class="st0">
	<rect x="329.7" y="171.4" class="st1" width="63.1" height="63.1"/>
	<rect x="224.8" y="-56.7" class="st1" width="63.1" height="63.1"/>
	<rect x="224.8" y="234.5" class="st1" width="63.1" height="63.1"/>
	<rect x="-59.6" y="171.4" class="st1" width="63.1" height="63.1"/>
</g>
<g id="avro-gse">
	<g>
		<polygon class="st2" points="9.8,117.1 228,151.7 323.7,111.5 28.9,111.5 		"/>
		<g>
			<path class="st3" d="M210.7,26.8c-10.6,16-29.4,36-58.5,52.5c-25.7,14.6-67.3,20.3-100.5,22.5c13.5-3.7,26.2-8.6,36.5-15.2
				C117.9,68,137,44.9,147.1,26.8H210.7z"/>
		</g>
		<g>
			<path class="st3" d="M313.4,6.4c-8.4,17.8-32.1,47.7-76.2,71.1c-32.7,17.3-87.6,23-127.3,24.8c20.8-4.2,37.7-10,50.5-17.3
				c46.5-26.4,69-61.8,72.7-78.6H313.4z"/>
		</g>
		<g>
			<path class="st3" d="M240.6,219.2c0-10.2,7.8-16.6,17.4-16.6c7.2,0,11.5,3.8,13.7,7.8l-6.9,3.6c-1.2-2.1-3.7-4.1-6.8-4.1
				c-5.2,0-8.9,4-8.9,9.3c0,5.2,3.7,9.3,8.9,9.3c2.4,0,4.8-1,5.9-1.9v-2.5h-7.2v-7.3h15.5v12.7c-3.4,3.8-8.1,6.3-14.2,6.3
				C248.4,235.8,240.6,229.4,240.6,219.2z"/>
			<path class="st3" d="M274.7,230.7l4.4-6.4c2.3,2.3,5.9,4.2,10.3,4.2c2.8,0,4.5-1,4.5-2.5c0-4.2-18.1-0.7-18.1-13.1
				c0-5.4,4.5-10.2,12.7-10.2c5.1,0,9.6,1.5,13,4.5l-4.5,6.2c-2.7-2.3-6.2-3.4-9.4-3.4c-2.4,0-3.5,0.8-3.5,2.2
				c0,3.9,18.1,1,18.1,12.9c0,6.4-4.8,10.7-13.4,10.7C282.4,235.8,277.9,233.7,274.7,230.7z"/>
			<path class="st3" d="M306.1,235.2v-32.1h23.5v7.2h-15.2v5h14.9v7.2h-14.9v5.4h15.2v7.2H306.1z"/>
		</g>
		<g>
			<path class="st3" d="M64.9,195.9c-0.5-2.8-1.4-5.4-2.6-7.7c-2.7-5.2-6.4-9.3-11.4-12.3c-4.9-3-10.4-4.5-16.3-4.5
				c-9,0-16.4,3-22.3,9.1c-5.8,6-8.8,13.7-8.8,23c0,5.6,1.2,10.8,3.5,15.4c2.4,4.6,5.8,8.5,10.2,11.5c2.3,1.6,5,2.9,7.9,3.8
				c2.9,0.9,5.8,1.4,8.8,1.4c3.1,0,6-0.3,8.8-1c1.9-0.5,3.8-1.1,5.5-1.9V221c-1.7,1.1-3.5,2-5.2,2.6c-2.5,0.9-5.2,1.4-7.9,1.4
				c-5.9,0-10.8-2-14.7-6.1c-3.8-4.1-5.7-9.3-5.7-15.7c0-6.3,1.9-11.4,5.6-15.4c3.7-4,8.5-6,14.3-6c5.9,0,10.6,2,14.3,6
				c3.7,4,5.5,9.3,5.5,15.8v30.9h11.2v-26C65.7,202.9,65.4,198.7,64.9,195.9z"/>
		</g>
		<g>
			<path class="st3" d="M113.2,172.5l-17.7,48.8l-17.8-48.8H66.3l20.6,55.8c1,2.6,2.1,4.5,3.4,5.7c1.3,1.2,3,1.8,5,1.8
				c2,0,3.7-0.6,5-1.8c1.4-1.2,2.5-3.1,3.5-5.7l20.7-55.8H113.2z"/>
		</g>
		<g>
			<path class="st3" d="M161.7,171.4c-5.6,0-10.1,0.8-13.5,2.4c-3.3,1.6-5.9,4.2-7.8,7.9v-9.2h-10.2v62h11.1v-29.2
				c0-8.2,1.7-14.1,5.1-17.7c3.4-3.6,8.9-5.4,16.5-5.4h1.7v-10.7H161.7z"/>
		</g>
		<g>
			<path class="st3" d="M226.2,191.1c-1.6-3.9-3.9-7.4-6.9-10.4c-2.9-3-6.3-5.3-10.1-6.9s-7.8-2.4-12-2.4c-4.2,0-8.2,0.8-11.9,2.4
				c-3.7,1.6-7.1,3.9-10.1,6.9c-3,3.1-5.3,6.6-6.9,10.5c-1.6,3.9-2.4,8-2.4,12.2c0,4.4,0.8,8.5,2.4,12.4c1.6,3.9,3.9,7.4,6.9,10.5
				c3,3,6.3,5.3,10.1,6.9c3.7,1.6,7.7,2.4,11.9,2.4c4.2,0,8.2-0.8,12-2.4c3.8-1.6,7.2-3.9,10.1-6.9c3-3,5.3-6.5,6.9-10.5
				c1.6-3.9,2.4-8.1,2.4-12.5C228.5,199.1,227.7,195,226.2,191.1z M211.2,218.6c-3.8,4.2-8.5,6.3-14,6.3c-5.5,0-10.1-2.1-14-6.3
				c-3.8-4.2-5.8-9.3-5.8-15.3c0-6,1.9-11.1,5.8-15.2c3.9-4.2,8.5-6.2,14-6.2c5.5,0,10.2,2.1,14,6.2c3.8,4.2,5.8,9.2,5.8,15.2
				C217,209.3,215,214.4,211.2,218.6z"/>
		</g>
	</g>
</g>
</svg>
